<?xml version="1.0" standalone="no"?><!DOCTYPE svg PUBLIC "-//W3C//DTD SVG 1.1//EN" "http://www.w3.org/Graphics/SVG/1.1/DTD/svg11.dtd"><svg t="1592485714649" class="icon" viewBox="0 0 1024 1024" version="1.1" xmlns="http://www.w3.org/2000/svg" p-id="726" xmlns:xlink="http://www.w3.org/1999/xlink" width="200" height="200"><defs><style type="text/css"></style></defs><path d="M513.075 515.257m-448.862 0a448.862 448.862 0 1 0 897.724 0 448.862 448.862 0 1 0-897.724 0Z" fill="#76C2AF" p-id="727"></path><path d="M258.504 759.605c22.383 29.056 68.616 30.941 103.268 4.249 14.094-10.862 39.087-40.385 39.087-100.876V475.895l266.512-50.901v118.08c0 41.654-33.739 51.23-45.021 53.355-0.987 0.12-1.945 0.359-2.933 0.539l-1.257 0.15 0.18 0.06c-13.346 2.424-26.782 8.02-38.841 17.296-34.652 26.692-44.617 71.878-22.234 100.934 22.383 29.056 68.616 30.971 103.268 4.279 17.535-13.526 34.891-39.612 34.891-80.378V326.095c0-16.518-13.406-25.854-29.924-20.797l-269.316 50.901c-16.518 5.027-23.379 22.533-23.379 39.051v182.252c0 41.714-38.504 61.031-49.755 63.125-0.569 0.09-1.137 0.269-1.736 0.359a39.88 39.88 0 0 1-2.424 0.329l0.329 0.15c-13.226 2.484-26.543 8.02-38.482 17.206-34.652 26.692-44.586 71.878-22.233 100.934z" fill="#231F20" p-id="728"></path><path d="M258.504 731.551c22.383 29.056 68.616 30.941 103.268 4.249 14.094-10.862 39.087-40.385 39.087-100.876V447.841l266.512-50.901v118.08c0 41.654-33.739 51.23-45.021 53.355-0.987 0.12-1.945 0.359-2.933 0.539l-1.257 0.15 0.18 0.06c-13.346 2.424-26.782 8.02-38.841 17.296-34.652 26.692-44.617 71.878-22.234 100.934 22.383 29.056 68.616 30.971 103.268 4.279 17.535-13.526 34.891-39.612 34.891-80.378V298.041c0-16.518-13.406-25.854-29.924-20.797l-269.316 50.901c-16.518 5.027-23.379 22.533-23.379 39.051v182.252c0 41.714-38.504 61.031-49.755 63.125-0.569 0.09-1.137 0.269-1.736 0.359a39.88 39.88 0 0 1-2.424 0.329l0.329 0.15c-13.226 2.484-26.543 8.02-38.482 17.206-34.652 26.693-44.586 71.878-22.233 100.934z" fill="#FFFFFF" p-id="729"></path></svg>